PathFileType	4	(X/Y/Z)	Trial07_KneeR_markers_cropped.trc
DataRate	CameraRate	NumFrames	NumMarkers	Units	OrigDataRate	OrigDataStartFrame	OrigNumFrames
200	200	5	27	m	200	88	101
Frame#	Time	R_ASIS			L_ASIS			Sacral			L_Thigh_Superior			L_Thigh_Posterior			L_Thigh_Inferior			L_Thigh_Lateral			L_Shank_Posterior			L_Shank_Superior			L_Shank_Lateral			L_Shank_Inferior			L_Midfoot_Superior			L_Heel			L_Midfoot_Lateral			L_Toe			R_Thigh_Posterior			R_Thigh_Superior			R_Thigh_Lateral			R_Thigh_Inferior			R_Shank_Posterior			R_Shank_Superior			R_Shank_Lateral			R_Shank_Inferior			R_Midfoot_Superior			R_Heel			R_Midfoot_Lateral			R_Toe
		X1	Y1	Z1	X2	Y2	Z2	X3	Y3	Z3	X4	Y4	Z4	X5	Y5	Z5	X6	Y6	Z6	X7	Y7	Z7	X8	Y8	Z8	X9	Y9	Z9	X10	Y10	Z10	X11	Y11	Z11	X12	Y12	Z12	X13	Y13	Z13	X14	Y14	Z14	X15	Y15	Z15	X16	Y16	Z16	X17	Y17	Z17	X18	Y18	Z18	X19	Y19	Z19	X20	Y20	Z20	X21	Y21	Z21	X22	Y22	Z22	X23	Y23	Z23	X24	Y24	Z24	X25	Y25	Z25	X26	Y26	Z26	X27	Y27	Z27

89	   0.440	    1.05498776247803	    0.99597519687197	    0.55627576712387	    1.13642186217274	    0.97010227942440	    0.31614524833498	    0.90853303234074	    1.04027094532260	    0.38203934445199	    1.11693505265364	    0.72757085240649	    0.26048373116326	    1.04221402698706	    0.71999721790048	    0.25473133595493	    1.12039815417371	    0.63518882863728	    0.28285516758699	    1.04101532526706	    0.63230035520503	    0.27466493487162	    0.99130696014771	    0.36581823988585	    0.30531066080434	    1.06325587218542	    0.34577307976228	    0.31856739205613	    0.98477501394277	    0.29483847592489	    0.31014838532720	    1.04962726867742	    0.28921872413690	    0.32154857995448	    1.08916288936956	    0.08788686179947	    0.42972339308477	    0.91658129829322	    0.03770406839443	    0.44810139383406	    1.01811067823703	    0.02425498925385	    0.38143734445028	    1.21462382866862	    0.03518314202041	    0.43188755402711	    0.98491260434861	    0.79298436464754	    0.62692309179971	    1.05928523727953	    0.80582238439651	    0.63079348068638	    1.00626392940250	    0.69663181574467	    0.64070908561131	    1.07539320955010	    0.71298987833743	    0.64665650774911	    0.98041860106309	    0.39797314558369	    0.65733503888262	    1.05361855210335	    0.37574905903140	    0.66503364768362	    0.96930914321876	    0.32784402806441	    0.65240851353106	    1.04050950376045	    0.31700949231564	    0.65870459181548	    1.06007983027461	    0.11798558656379	    0.62050071434702	    0.89828474083220	    0.08172428148898	    0.55320138257726	    0.97299997080885	    0.05021766484824	    0.64757450427696	    1.17330506300792	    0.07095510071426	    0.65903408723772
90	   0.445	    1.05522536146695	    0.99606632219164	    0.55629430280350	    1.13657527375024	    0.97017457300553	    0.31617635329271	    0.90866493582397	    1.04025239467638	    0.38206239828996	    1.11710583302139	    0.72757096136551	    0.26057277619955	    1.04238808773727	    0.71999719157786	    0.25478729135319	    1.12056294627494	    0.63520561132094	    0.28297301374882	    1.04118813548402	    0.63229853340863	    0.27474927398932	    0.99137701796277	    0.36583798119507	    0.30537037778794	    1.06331659859649	    0.34578218958690	    0.31861971527576	    0.98482866250160	    0.29486296839833	    0.31019402227289	    1.04967538021276	    0.28922899386809	    0.32159298532505	    1.08916765974960	    0.08788487138975	    0.42972815760951	    0.91656134147316	    0.03770836484639	    0.44810796670904	    1.01811072760850	    0.02425677309371	    0.38144320779269	    1.21462363187538	    0.03517263907518	    0.43187416928680	    0.98437897217809	    0.79307206764951	    0.62690742180801	    1.05880529485270	    0.80561074322217	    0.63106036433555	    1.00530336800600	    0.69658109361062	    0.64034804485579	    1.07447928792644	    0.71262114322406	    0.64655034139055	    0.98232681545952	    0.39532034210237	    0.65794646238170	    1.05614812174365	    0.37532308688839	    0.66561141176168	    0.97338179946825	    0.32473477339824	    0.65365756487039	    1.04492210701406	    0.31633350893242	    0.65996238162923	    1.07092263780536	    0.11764865826694	    0.62341159951739	    0.91010060300975	    0.07538753696066	    0.55709973201205	    0.98607907988191	    0.04731219146642	    0.65157435129705	    1.18565513586439	    0.07470211675968	    0.66207255966523
91	   0.450	    1.05551859796915	    0.99617423116680	    0.55629575646792	    1.13672031030813	    0.97024699970644	    0.31620375996434	    0.90883686739384	    1.04024280153978	    0.38213016676169	    1.11728207500238	    0.72757096568781	    0.26067507965407	    1.04257202564068	    0.71999769240504	    0.25486061632958	    1.12074456951197	    0.63522192262761	    0.28310893933116	    1.04137704649499	    0.63228618139549	    0.27484878767965	    0.99147366642314	    0.36585596559649	    0.30546697327504	    1.06340394533421	    0.34579460392905	    0.31870621031482	    0.98490919280668	    0.29488395384683	    0.31027976472718	    1.04975493843368	    0.28924396003496	    0.32166935892193	    1.08917464961580	    0.08788389450432	    0.42973837242847	    0.91655494423536	    0.03771369660184	    0.44812626058046	    1.01811355605484	    0.02426777560197	    0.38144518352196	    1.21463528007613	    0.03516498101726	    0.43187160844771	    0.98391768710209	    0.79321404529217	    0.62694153935230	    1.05839927107652	    0.80539619712741	    0.63111665485909	    1.00443032956094	    0.69657373179384	    0.64000556783100	    1.07366701051892	    0.71228272987825	    0.64625799385793	    0.98419180693261	    0.39300509056147	    0.65859475309248	    1.05849845222855	    0.37506060583143	    0.66624627901036	    0.97733600370780	    0.32207072084963	    0.65498408310237	    1.04908297603388	    0.31586122067051	    0.66121861196066	    1.08120468177012	    0.11764278401309	    0.62629285179497	    0.92157123898708	    0.06988198109073	    0.56075870711427	    0.99855315328340	    0.04504905176023	    0.65534866704309	    1.19725654437665	    0.07861269765382	    0.66507960537949
92	   0.455	    1.05583190464572	    0.99626269517661	    0.55629086504359	    1.13687170436302	    0.97031410397663	    0.31621077667586	    0.90903232139672	    1.04023350508605	    0.38222112925469	    1.11743303851221	    0.72756072584082	    0.26073647611354	    1.04272178765778	    0.71998696558391	    0.25493170018041	    1.12090658953559	    0.63522350093220	    0.28319776020217	    1.04153895455032	    0.63227034002676	    0.27493525364069	    0.99156219759560	    0.36587199565662	    0.30558721571139	    1.06348905298507	    0.34580675492715	    0.31879381912502	    0.98498024330316	    0.29490310379751	    0.31039196237441	    1.04982944240033	    0.28925431515748	    0.32175344025778	    1.08917965468753	    0.08788084141634	    0.42975250326949	    0.91658359288017	    0.03770202100389	    0.44814424519539	    1.01812064646045	    0.02428395207852	    0.38144429654151	    1.21464735341675	    0.03515800975386	    0.43186805830137	    0.98345985164241	    0.79335767380940	    0.62703086409172	    1.05798234989005	    0.80515729154866	    0.63105964633151	    1.00355936512062	    0.69657942020296	    0.63974353870185	    1.07287938906082	    0.71195440032713	    0.64589501948909	    0.98611655017488	    0.39102064304080	    0.65943488448211	    1.06081253265942	    0.37500801767587	    0.66698191217974	    0.98118407190146	    0.31978854902608	    0.65636966617902	    1.05306884517162	    0.31561173276334	    0.66245204356298	    1.09080860281047	    0.11800363989400	    0.62893554239510	    0.93250299443602	    0.06521288537254	    0.56410910082402	    1.01032223869691	    0.04343434556940	    0.65877810680312	    1.20803212506324	    0.08270537370424	    0.66781776886412
93	   0.460	    1.05612481968660	    0.99632402536759	    0.55630339535456	    1.13703604522339	    0.97037772771263	    0.31620499761949	    0.90920350638647	    1.04022135389308	    0.38231666820986	    1.11755102025538	    0.72754278125287	    0.26074013192750	    1.04282629384805	    0.71997259134467	    0.25499265825439	    1.12102942350361	    0.63520607138190	    0.28322119153175	    1.04165045362366	    0.63226275570814	    0.27499833648695	    0.99163621887650	    0.36588759728137	    0.30568461078326	    1.06357054624698	    0.34581699698359	    0.31885655676723	    0.98504405355459	    0.29492278893696	    0.31047583729769	    1.04989310263034	    0.28925925247790	    0.32181521836286	    1.08918475975348	    0.08788992725578	    0.42976448043504	    0.91670056962920	    0.03766485055997	    0.44813072118993	    1.01812617733224	    0.02429329022492	    0.38145079560301	    1.21465672576056	    0.03515242174076	    0.43186830933308	    0.98296417188526	    0.79348582700807	    0.62713028153346	    1.05752731121088	    0.80495291524492	    0.63101670719623	    1.00267033929175	    0.69659947227139	    0.63961575027480	    1.07208204054532	    0.71165829177661	    0.64561599867052	    0.98810792698720	    0.38937453695834	    0.66037492666771	    1.06314983867652	    0.37519642780179	    0.66776780780083	    0.98490093712320	    0.31789478317277	    0.65772144220772	    1.05690441996530	    0.31562527650234	    0.66360056861266	    1.09968666550012	    0.11868739225134	    0.63119425979762	    0.94271501616708	    0.06136018705884	    0.56716284501413	    1.02130207228887	    0.04239442909039	    0.66183178485438	    1.21793861537272	    0.08687406983074	    0.67006570673845
